PathFileType	4	(X/Y/Z)	C:\ABL_Data\ExoAging\Piloting\Dec 6 2019\Generated_files\static_1.trc
DataRate	CameraRate	NumFrames	NumMarkers	Units	OrigDataRate	OrigDataStartFrame	OrigNumFrames
100.00	100.00	       13	20	mm	100.00	472	       539
Frame#	Time	R.Acromium			L.Acromium			Sternum			R.ASIS			R.PSIS			S2			L.PSIS			L.ASIS			R.Knee			R.Ankle			L.Knee			L.Ankle			R.MKnee			R.MAnkle			L.MKnee			L.MAnkle			C7			T12			Clav			R.Back			
		X1	Y1	Z1	X2	Y2	Z2	X3	Y3	Z3	X4	Y4	Z4	X5	Y5	Z5	X6	Y6	Z6	X7	Y7	Z7	X8	Y8	Z8	X9	Y9	Z9	X10	Y10	Z10	X11	Y11	Z11	X12	Y12	Z12	X13	Y13	Z13	X14	Y14	Z14	X15	Y15	Z15	X16	Y16	Z16	X17	Y17	Z17	X18	Y18	Z18	X19	Y19	Z19	X20	Y20	Z20	

472	4.710	778.36615	365.02567	1490.53845	791.97833	769.07990	1480.42896				855.46991	424.32986	1006.23004	671.79565	506.86456	1043.53174	655.38007	559.46429	1020.02075	677.55103	609.70911	1047.11194	864.88666	684.34088	1017.49768	759.05609	362.04950	513.03668	693.51770	359.34793	87.83281	759.11426	741.12976	509.92319	701.33734	751.66321	80.24689	780.67694	475.71930	490.20316	739.29944	439.59808	92.86468	768.84155	628.20544	487.49496	717.54572	661.56183	94.20751	701.24896	553.53015	1556.14429	674.79712	560.80652	1186.05469	858.95654	557.83655	1454.74329	630.25153	440.00000	1396.00171	
473	4.720	778.38550	365.03125	1490.52197	792.01544	769.05347	1480.45752				855.47919	424.31613	1006.24292	671.79401	506.87888	1043.50964	655.37140	559.46149	1020.04840	677.57086	609.69714	1047.09656	864.90234	684.34796	1017.46106	759.07037	362.06073	513.06378	693.51788	359.36200	87.83324	759.17426	741.11169	509.92410	701.10425	751.77435	80.43319	780.80042	475.70871	490.18594	739.30682	439.58810	92.86860	768.81140	628.18341	487.46881	717.52905	661.55554	94.23032	701.26349	553.61047	1556.15320	674.82123	560.81451	1186.03442	858.95807	557.88818	1454.76160	630.23999	440.02664	1396.02258	
474	4.730	778.38947	365.03467	1490.48120	791.98975	769.12286	1480.48962				855.51715	424.30887	1006.27356	671.84546	506.83353	1043.54468	655.39612	559.48254	1020.08917	677.60492	609.68359	1047.08728	864.95325	684.30164	1017.44391	759.07471	362.06461	513.05292	693.53339	359.34262	87.82942	759.21600	741.11853	509.94113	701.39941	751.65125	80.27396	780.82965	475.69931	490.23068	739.35565	439.57529	92.85332	768.88586	628.17975	487.46368	717.57538	661.54486	94.20049	701.23621	553.59558	1556.12463	674.81512	560.87415	1186.07593	858.96802	557.92468	1454.74036	630.25427	439.99890	1395.99500	
475	4.740	778.37958	365.03656	1490.48669	791.98834	769.10461	1480.53503				855.53650	424.34256	1006.19452	671.82190	506.84857	1043.53259	655.42523	559.42798	1020.02289	677.57672	609.68695	1047.10706	865.00598	684.28973	1017.50537	759.08325	362.04971	513.04675	693.54614	359.38104	87.80357	759.23914	741.05621	509.94858	701.42871	751.62506	80.27444	780.75739	475.70090	490.22260	739.38409	439.58899	92.84512	768.89990	628.16748	487.47208	717.65350	661.57092	94.18227	701.20038	553.55072	1556.11169	674.75812	560.90747	1186.08240	858.96350	557.86578	1454.77820	630.23553	440.06366	1395.98047	
476	4.750	778.38647	365.00543	1490.53503	791.96509	769.12848	1480.56946				855.53918	424.31641	1006.25330	671.82721	506.83795	1043.55103	655.42737	559.45105	1020.00891	677.58765	609.67932	1047.08325	865.00684	684.26953	1017.44379	759.13110	362.06372	513.04889	693.55365	359.36740	87.81274	759.23743	741.13147	509.96570	701.41876	751.65973	80.26690	780.84052	475.73404	490.23984	739.40454	439.58356	92.82579	768.92731	628.14752	487.52261	717.66351	661.56226	94.14146	701.19690	553.51971	1556.15613	674.80884	560.89496	1186.06836	858.95264	557.89899	1454.81873	630.23834	439.99075	1396.00586	
477	4.760	778.33978	365.01392	1490.54700	791.96173	769.12006	1480.53577				855.51599	424.33582	1006.22638	671.82452	506.88943	1043.53418	655.45404	559.42316	1020.00146	677.60681	609.70563	1047.06714	865.04218	684.29523	1017.50269	759.13977	362.08862	513.04559	693.56738	359.38321	87.80034	759.27039	741.13135	509.94391	701.41718	751.61798	80.24861	780.88855	475.66376	490.23233	739.39496	439.57462	92.84534	768.99841	628.09045	487.51678	717.64215	661.55310	94.16402	701.21594	553.60333	1556.14563	674.80060	560.90649	1186.04565	858.94342	557.86151	1454.79480	630.22968	440.05405	1395.97168	
478	4.770	778.30530	365.00717	1490.54028	791.95929	769.08533	1480.52551				855.48096	424.31192	1006.26575	671.81891	506.88513	1043.51392	655.43121	559.41620	1020.02496	677.54968	609.73724	1047.05054	864.99701	684.30927	1017.45416	759.14508	362.04929	513.07007	693.55255	359.36221	87.81796	759.32782	741.11230	509.97528	701.39069	751.62689	80.26357	780.91614	475.66074	490.28973	739.36938	439.58008	92.86301	769.02557	628.13776	487.48373	717.60681	661.55347	94.18550	701.15210	553.59845	1556.10083	674.79236	560.91846	1186.03064	858.91040	557.89990	1454.76404	630.20947	440.05811	1395.94421	
479	4.780	778.26648	365.01593	1490.55652	791.91949	769.07574	1480.55322				855.47223	424.28629	1006.29919	671.79376	506.90717	1043.48962	655.40509	559.45593	1019.98590	677.58148	609.74451	1047.05505	865.01624	684.32520	1017.46948	759.12585	362.06979	513.06879	693.53876	359.37476	87.83405	759.34613	741.07391	509.94617	701.40369	751.62549	80.29758	780.93915	475.69214	490.29037	739.34564	439.56985	92.85589	768.98999	628.15424	487.50781	717.59393	661.54517	94.17671	701.10797	553.61285	1556.09949	674.77911	560.97937	1186.04370	858.86395	557.91608	1454.78381	630.17822	440.02689	1395.96387	
480	4.790	778.25482	365.01862	1490.56287	791.89343	769.07794	1480.57336				855.47015	424.32803	1006.28918	671.81763	506.93512	1043.48352	655.39618	559.47797	1019.96094	677.59302	609.73694	1047.04700	865.03198	684.31250	1017.47363	759.12085	362.06079	513.07129	693.55621	359.35123	87.83495	759.32513	741.12708	509.97870	701.40906	751.67877	80.31561	780.96600	475.70996	490.27924	739.38263	439.58200	92.88305	769.04822	628.09399	487.50534	717.62878	661.55115	94.17780	701.08472	553.52411	1556.10852	674.77942	560.94482	1186.03198	858.84302	557.87347	1454.81519	630.16455	440.04062	1395.96106	
481	4.800	778.18890	364.97549	1490.56116	791.82574	769.08667	1480.61487				855.45184	424.26874	1006.30920	671.78442	506.91763	1043.49146	655.38599	559.49768	1019.98248	677.57654	609.77063	1047.04688	865.06396	684.30328	1017.46704	759.13129	362.07462	513.04230	693.55609	359.35910	87.86898	759.37708	741.08105	509.96991	701.45709	751.61243	80.33729	780.95172	475.68640	490.27649	739.43518	439.57040	92.89663	769.05054	628.09595	487.52182	717.65472	661.54565	94.19093	701.01263	553.47833	1556.10876	674.75012	560.94403	1186.03381	858.80273	557.85272	1454.85413	630.11816	440.00650	1395.95227	
482	4.810	778.16187	364.95587	1490.58447	791.78278	769.06415	1480.65881				855.44238	424.28192	1006.28003	671.75562	506.90408	1043.49500	655.37823	559.50464	1019.99988	677.57404	609.78192	1047.05212	865.10834	684.30963	1017.60779	759.13159	362.10217	513.06024	693.54205	359.39282	87.84872	759.35565	741.09802	509.98206	701.43365	751.59888	80.31425	780.93811	475.67230	490.28586	739.37860	439.57880	92.86464	769.03979	628.15717	487.51672	717.62463	661.57031	94.20042	700.93573	553.34998	1556.11133	674.72150	560.96814	1186.05334	858.75781	557.82629	1454.87219	630.06171	440.00006	1395.98438	
483	4.820	778.09296	364.91605	1490.56030	791.75116	769.08228	1480.59766				855.40942	424.25638	1006.31433	671.75391	506.93976	1043.49475	655.42169	559.51801	1019.97241	677.59528	609.80591	1047.06372	865.00592	684.28143	1017.47699	759.10028	362.07513	513.07648	693.53210	359.38702	87.84834	759.35583	741.13257	509.98721	701.39728	751.62115	80.31989	780.92877	475.67514	490.26309	739.36609	439.59460	92.88873	769.02545	628.17432	487.49234	717.57568	661.54565	94.20614	700.87897	553.36841	1556.10120	674.69489	560.97241	1186.02368	858.70947	557.77960	1454.87231	630.04077	440.00140	1395.91919	
484	4.830	778.05127	364.87207	1490.49683	791.67737	769.06750	1480.59167				855.37518	424.26950	1006.28088	671.77545	506.95496	1043.45984	655.43683	559.55121	1019.98743	677.60535	609.78888	1047.04126	865.03015	684.29651	1017.49677	759.11102	362.09772	513.04065	693.56860	359.35275	87.84678	759.36676	741.09338	509.95346	701.38458	751.66138	80.32195	780.94891	475.70193	490.26013	739.35278	439.60913	92.89719	769.03522	628.17499	487.49075	717.56970	661.54865	94.24282	700.82349	553.32111	1556.05640	674.68634	560.98682	1185.98438	858.65778	557.63800	1454.82031	630.00061	439.96817	1395.85510	
